<?xml version="1.0" encoding="iso-8859-1"?>
<!-- Generator: Adobe Illustrator 23.0.0, SVG Export Plug-In . SVG Version: 6.00 Build 0)  -->
<svg version="1.1" id="Livello_1" xmlns="http://www.w3.org/2000/svg" xmlns:xlink="http://www.w3.org/1999/xlink" x="0px" y="0px"
	 viewBox="0 0 600 72" style="enable-background:new 0 0 600 72;" xml:space="preserve">
<g>
	<g>
		<path style="fill:#35BEB7;" d="M283.88,18.857V5.992c-5.307,2.803-9.777,6.975-12.943,12.047l9.192,5.231
			C281.195,21.647,282.456,20.164,283.88,18.857z"/>
	</g>
	<g>
		<path style="fill:#35BEB7;" d="M286.148,66.467l-0.7-0.005l0.133-17.481l0.597,0.63c3.76,3.966,8.84,6.151,14.304,6.151
			c10.866,0,19.706-8.839,19.706-19.705c0-10.866-8.84-19.706-19.706-19.706c-5.464,0-10.544,2.184-14.304,6.151l-0.603,0.636V5.376
			h0.699v16.033c3.826-3.72,8.838-5.758,14.208-5.758c11.252,0,20.406,9.154,20.406,20.406c0,11.252-9.154,20.405-20.406,20.405
			c-5.373,0-10.388-2.041-14.215-5.764L286.148,66.467z"/>
	</g>
	<g>
		<path style="fill:#35BEB7;" d="M276.316,36.056c0-3.68,0.853-7.16,2.37-10.255l-9.184-5.226
			c-2.349,4.606-3.676,9.821-3.676,15.346c0,12.986,7.318,24.258,18.054,29.928V53.254
			C279.231,48.989,276.316,42.863,276.316,36.056z M276.551,58.319c-5.794-5.913-8.985-13.728-8.985-22.008
			c0-3.189,0.476-6.335,1.414-9.351l1.335,0.415c-0.896,2.882-1.351,5.888-1.351,8.936c0,7.912,3.049,15.38,8.585,21.029
			L276.551,58.319z"/>
	</g>
	<g>
		<path style="fill:#35BEB7;" d="M300.347,2.094c-5.209,0-10.142,1.178-14.549,3.281v12.434c3.989-3.186,9.047-5.091,14.549-5.091
			c12.889,0,23.337,10.449,23.337,23.338c0,12.889-10.448,23.337-23.337,23.337c-5.503,0-10.56-1.905-14.549-5.091v12.163
			c4.407,2.103,9.34,3.281,14.549,3.281c18.682,0,33.826-15.144,33.826-33.825C334.173,17.239,319.029,2.094,300.347,2.094z"/>
	</g>
</g>
<path style="fill:#75CDD5;" d="M64.577,38.19v-4.51c-0.188-0.806-0.747-1.516-1.674-2.134c-0.927-0.618-2.117-0.927-3.569-0.927
	h-26.82v-6.204h30.451c2.098,0,3.898,0.59,5.403,1.772c1.48,1.129,2.219,2.497,2.219,4.109v11.722c0,1.612-0.739,2.994-2.219,4.151
	c-1.505,1.126-3.305,1.691-5.403,1.691H32.514V33.196h6.05v8.299h20.973c1.292,0,2.446-0.323,3.468-0.969
	C64.055,39.855,64.577,39.077,64.577,38.19z"/>
<path style="fill:#75CDD5;" d="M96.441,33.517l-2.137-2.899h-7.785l4.356-6.204h6.131l15.971,23.445h-6.209l-6.695-9.023H87.889
	l-6.816,9.023h-6.17l9.841-14.342H96.441z"/>
<path style="fill:#75CDD5;" d="M110.84,24.333l12.261,17.241l11.778-17.241h7.097l-15.971,23.526h-6.131l-15.969-23.607
	L110.84,24.333z"/>
<path style="fill:#75CDD5;" d="M152.342,47.859h-6.049V24.414h6.049V47.859z"/>
<path style="fill:#75CDD5;" d="M188.803,38.19v-4.51c-0.188-0.806-0.744-1.516-1.674-2.134c-0.927-0.618-2.117-0.927-3.572-0.927
	H156.74v-6.204h30.451c2.098,0,3.898,0.59,5.403,1.772c1.48,1.129,2.219,2.497,2.219,4.109v11.722c0,1.612-0.739,2.994-2.219,4.151
	c-1.505,1.126-3.305,1.691-5.403,1.691H156.74V33.196h6.049v8.299h20.973c1.292,0,2.446-0.323,3.468-0.969
	C188.281,39.855,188.803,39.077,188.803,38.19z"/>
<path style="fill:#75CDD5;" d="M199.127,30.618v-0.362c0-1.612,0.738-2.982,2.219-4.109c1.477-1.157,3.28-1.733,5.403-1.733H237.2
	v6.204H199.127z M237.2,41.495v6.364h-30.451c-2.123,0-3.926-0.565-5.403-1.691c-1.48-1.157-2.219-2.539-2.219-4.151v-8.742H237.2
	v5.561h-32.024v2.66H237.2z"/>
<path style="fill:#75CDD5;" d="M373.388,45.675h-6.402V20.875h6.402V45.675z"/>
<path style="fill:#75CDD5;" d="M400.823,30.503l-2.264-3.066h-8.232l4.608-6.563h6.485l16.895,24.801h-6.569l-7.082-9.545h-12.887
	l-7.21,9.545h-6.527l10.41-15.172H400.823z"/>
<path style="fill:#75CDD5;" d="M463.158,38.943v6.732h-32.213c-2.246,0-4.153-0.597-5.716-1.788
	c-1.566-1.224-2.347-2.686-2.347-4.391V27.054c0-1.705,0.781-3.155,2.347-4.346c1.562-1.224,3.47-1.833,5.716-1.833h32.213v6.563
	H434.7c-1.506,0-2.772,0.318-3.797,0.957c-1.025,0.642-1.565,1.429-1.622,2.368v4.771c0,0.454,0.137,0.888,0.407,1.301
	c0.27,0.41,0.645,0.772,1.129,1.085c0.484,0.315,1.052,0.561,1.708,0.746c0.654,0.187,1.364,0.279,2.133,0.279H463.158z"/>
<path style="fill:#75CDD5;" d="M467.721,39.496V27.054c0-1.705,0.785-3.155,2.35-4.346c1.563-1.224,3.47-1.833,5.713-1.833h24.153
	c2.216,0,4.124,0.624,5.716,1.875c1.563,1.194,2.347,2.641,2.347,4.346v12.4c0,1.705-0.784,3.167-2.347,4.391
	c-1.592,1.191-3.5,1.788-5.716,1.788h-24.153c-2.243,0-4.15-0.597-5.713-1.788C468.505,42.663,467.721,41.201,467.721,39.496z
	 M501.642,35.447v-4.771c-0.202-0.853-0.787-1.604-1.771-2.258c-0.98-0.653-2.24-0.98-3.776-0.98h-16.557
	c-1.503,0-2.769,0.318-3.797,0.957c-1.022,0.642-1.563,1.429-1.622,2.368v4.771c0,0.454,0.14,0.888,0.41,1.301
	c0.27,0.41,0.645,0.772,1.129,1.085c0.484,0.315,1.052,0.561,1.705,0.746c0.653,0.187,1.367,0.279,2.136,0.279h16.595
	c1.509,0,2.802-0.342,3.883-1.025C501.09,37.209,501.642,36.385,501.642,35.447z"/>
<path style="fill:#75CDD5;" d="M546.443,27.437l-11.521,18.238h-4.266l-11.604-18.238h-6.485v-6.563h8.788l11.518,17.13l10.84-17.13
	h9.13v24.801h-6.399V27.437z M518.965,30.42v15.256h-6.399V30.42H518.965z"/>
<path style="fill:#75CDD5;" d="M563.804,45.675h-6.396V20.875h6.396V45.675z"/>
<g style="opacity:0.6;">
	<g>
		<polygon style="fill:#9ED9DB;" points="524.211,120.595 519.123,120.595 519.123,60.957 297.2,60.957 297.2,59.486 
			524.211,59.486 		"/>
	</g>
	<g>
		<polygon style="fill:#9ED9DB;" points="543.28,120.595 538.198,120.595 538.198,55.208 297.2,55.208 297.2,53.737 543.28,53.737 
					"/>
	</g>
	<g>
		<polygon style="fill:#9ED9DB;" points="600.805,67.411 556.46,67.411 556.46,50.045 297.2,50.045 297.2,48.575 561.549,48.575 
			561.549,65.94 600.805,65.94 		"/>
	</g>
	<g>
		<rect x="297.2" y="43.176" style="fill:#9ED9DB;" width="303.605" height="1.471"/>
	</g>
	<g>
		<rect x="295.983" y="37.671" style="fill:#9ED9DB;" width="304.823" height="1.471"/>
	</g>
	<g>
		<polygon style="fill:#9ED9DB;" points="524.211,11.914 297.2,11.914 297.2,9.919 519.123,9.919 519.123,-47.88 524.211,-47.88 		
			"/>
	</g>
	<g>
		<polygon style="fill:#9ED9DB;" points="543.28,17.664 297.2,17.664 297.2,15.729 538.198,15.729 538.198,-47.88 543.28,-47.88 		
			"/>
	</g>
	<g>
		<polygon style="fill:#9ED9DB;" points="561.549,22.827 297.2,22.827 297.2,21.356 556.46,21.356 556.46,3.989 600.805,3.989 
			600.805,5.46 561.549,5.46 		"/>
	</g>
	<g>
		<rect x="297.2" y="26.753" style="fill:#9ED9DB;" width="303.605" height="1.471"/>
	</g>
	<g>
		<rect x="295.983" y="32.259" style="fill:#9ED9DB;" width="304.823" height="1.471"/>
	</g>
</g>
<g style="opacity:0.6;">
	<g>
		<polygon style="fill:#9ED9DB;" points="73.586,-47.88 78.633,-47.88 78.633,10.758 298.792,10.758 298.792,12.204 73.586,12.204 
					"/>
	</g>
	<g>
		<polygon style="fill:#9ED9DB;" points="54.668,-47.88 59.709,-47.88 59.709,16.411 298.792,16.411 298.792,17.857 54.668,17.857 
					"/>
	</g>
	<g>
		<polygon style="fill:#9ED9DB;" points="-2.4,4.412 41.593,4.412 41.593,21.487 298.792,21.487 298.792,22.933 36.545,22.933 
			36.545,5.859 -2.4,5.859 		"/>
	</g>
	<g>
		<rect x="-2.4" y="26.795" style="fill:#9ED9DB;" width="301.192" height="1.446"/>
	</g>
	<g>
		<rect x="-2.4" y="32.208" style="fill:#9ED9DB;" width="302.4" height="1.446"/>
	</g>
	<g>
		<polygon style="fill:#9ED9DB;" points="73.586,58.98 298.792,58.98 298.792,61.023 78.633,61.023 78.633,120.2 73.586,120.2 		"/>
	</g>
	<g>
		<polygon style="fill:#9ED9DB;" points="54.668,53.326 298.792,53.326 298.792,55.3 59.709,55.3 59.709,120.2 54.668,120.2 		"/>
	</g>
	<g>
		<polygon style="fill:#9ED9DB;" points="36.545,48.25 298.792,48.25 298.792,49.696 41.593,49.696 41.593,66.772 -2.4,66.772 
			-2.4,65.326 36.545,65.326 		"/>
	</g>
	<g>
		<rect x="-2.4" y="42.943" style="fill:#9ED9DB;" width="301.192" height="1.446"/>
	</g>
	<g>
		<rect x="-2.4" y="37.529" style="fill:#9ED9DB;" width="302.4" height="1.446"/>
	</g>
</g>
</svg>
